<?xml version="1.0" encoding="UTF-8"?>
<svg id="Layer_1" xmlns="http://www.w3.org/2000/svg" version="1.1" viewBox="0 0 561 450">
  <!-- Generator: Adobe Illustrator 30.0.0, SVG Export Plug-In . SVG Version: 2.1.1 Build 123)  -->
  <defs>
    <style>
      .st0 {
        stroke: #362311;
      }

      .st0, .st1 {
        stroke-miterlimit: 10;
        stroke-width: 2px;
      }

      .st0, .st1, .st2 {
        fill: #faa0d8;
      }

      .st1 {
        stroke: #e761ac;
      }
    </style>
  </defs>
  <path class="st0" d="M449.19,280.19l-31.63-12.07c-2.98-1.78-1.96-5.63-2.54-8.49-.56-2.73-2.99-5.06-2.77-8.02l11.67,7.28c7.32,4.91,14.14,10.51,21.29,15.65,1.71,1.23,8.96,4.4,3.98,5.65Z"/>
  <path class="st0" d="M412.25,251.61l11.66,7.28c7.32,4.91,14.14,10.51,21.29,15.65,1.71,1.23,8.96,4.41,3.98,5.66l-31.63-12.08c-2.98-1.78-1.96-5.63-2.54-8.49-.56-2.73-2.98-5.06-2.76-8.02Z"/>
  <path class="st1" d="M209.87,21.46c13.87-11.08,36.43-16.62,53.8-19.11,8.19-1.18,15.93-2.05,24.15-.56.17.82-.22.97-.79,1.37-2.42,1.71-13.71,1.93-17.54,2.61-35.2,6.24-70.52,26.5-58.08,67.83,12.89,42.84,60.61,69.71,36.52,120.64-1.82,3.86-3.3,7.72-7.28,9.5-10.35,4.64-18.92,9.24-26.48,18.13-1.38,1.62-3.89,6.2-5.05,6.94-2.8,1.8-7.58-.02-10.78-.21-6.48-.38-11.22,2.06-17.51,1.91-.49-.45,2.16-3.78,2.63-4.32,4.36-4.98,10.83-10.06,15.61-15.09,23.09-24.23,42.91-49.37,27.9-84.48-4.82-11.29-12.93-18.92-18.87-29.57-13.65-24.44-24.06-54.94,1.77-75.59Z"/>
  <path class="st1" d="M279.68,211.13c4.91.95,9.57-1.41,14.31-1.8,4.58-.37,16.21-.07,20.51,1.07,1.54.41,3.52,1.52,4.18,3l-12.23,3.11c-5.25,2.16-14.05,5.2-15.37,11.49-.31,1.46-.75,4.18,1.08,4.72,4.4,1.32,4.26-3.38,6.62-5.65,1.44-1.38,6.08-3.54,8.07-4.4,13.08-5.64,30.35-6.4,43.88-1.97,4.02,1.31,7.46,4.03,11.62,4.45.19,1.03-.47,1.14-1.2,1.43-2.01.79-7.57.99-10.4,1.59-8.44,1.8-24.45,7.98-22.96,18.82.13.94.27,1.72,1.31,2.03,5.51,1.64,3.87-3.83,6.18-7.06,6.45-9.02,29.84-9.67,39.63-8.03,18.41,3.08,34.31,17.83,35.44,36.99,1.19,20.04-10.98,31.32-29.28,35.99-7.42,1.89-22.75,3.3-30.45,3.13-3.26-.08-7.55-1.67-11.06-1.93-17.22-1.28-37.53-2.94-53.48-10.33-5.77-2.68-2.52-2.71-1.21-7.41,9.43-33.81-32.98-45.03-58.32-40.07-2.35.46-6.47,2.63-8.61,1.45-.97-.53-3.52-7.39-3.73-8.74-2.72-17.3,20.35-30.78,34.32-34.99,9.93-2.99,21.03-3.7,31.3-2.53.46,1.6-1.85,1.06-2.38,1.48.29,1.66.19,3.76,2.23,4.16Z"/>
  <path class="st1" d="M173.31,242.25c1.04-1.19,11.57-3.33,12.42-2.58.42,2.82,2.52,5.31,5.55,5.24,1.23-.03,5.34-1.2,6.06-2.15,1.36-1.78-1.82-3.17-.53-3.88,11.59-1.83,8.49,3.55,10.2,10.93.44,1.88,2.81,5.4,2.05,7.06-.61,1.34-5.69,3.09-7.4,4.12-6.18,3.72-14.23,12.28-16.21,19.28-.63,2.2-1.25,12.55-2.86,13.01-.68.19-11.67-4.68-13.13-5.46-13.29-7.15-22.78-22.12-11.97-35.97,5.02-6.42,7.93-4.55,15.29-5.57.28-1.33-.43-2.94.53-4.03Z"/>
  <path class="st1" d="M197.9,271.96c3.71,20.81,34.56,18.97,50,14.73,5.93-1.63,15.14-4.68,11.5-12.65-4.48-9.8-29.75-13.46-38.74-10.26-4.89,1.74-9.95,10.98-3.57,13.22,1.72.61,10.63,2.61,12.25,2.66,3.06.1,10.38-1.66,9.37-5.94-3.14-2.58-7.4-.72-10.82-.76-1.31-.01-6.09-.61-5.49-2.63,5.31-3.38,13.98-1.46,19.84.23,2.79.8,13.86,4.01,9.89,8.37-1.58,1.72-3.14.9-4.99,1.24-11.04,2.04-30.26,6.65-39.42-2.44-3.38-3.36-3.71-6.36-.9-10.04,6.13-8.06,27.35-10.82,36.92-10.13,14.63,1.06,36.13,11.02,34.71,28.49-2.53,30.96-71.43,39.36-85.91,11.17-4.55-8.84-2.74-19.28,5.36-25.26Z"/>
  <path class="st1" d="M96.07,262.9c0-2.43,3.28-4.01,5.13-5.18,16.49-10.51,37.06-21.17,54.52-30.39,3.85-2.03,15.55-6.74,17.83-9.03,4.88-4.89-6.11-2.44-7.66-2.37-22.21.9-44.97.67-67.16.96-5.69.07-11.43.16-17.06-.51l90.2-25.89-.7-1.45c-24.27-5.51-48.41-11.96-72.7-17.49-2.25-.52-16.2-2.99-16.8-3.6-.95-.98,2.44-1.69,2.78-1.77,8.77-2.24,18.35-.34,27.19-.12,18.18.44,37.3-2.34,55.19-1.45,3.05.15,5.83,1.99,8.8-.09v-1.77l-80.04-42.27,89.71,19.66-.67-2.91c-11.06-8.19-20.41-18.28-30.5-27.54-11.75-10.77-24.23-20.9-35.03-32.6.68-.96.66-.5,1.31-.37,3.47.68,9.63,5.28,13.07,7.09,18.27,9.63,36.96,18.42,55.03,28.44,2.73,1.52,5.56,3.87,8.29,5.14.99.46,2.7,1.51,3.64.75.58-.47.7-.88.62-1.61-.33-3.25-9.96-15.13-12.4-18.81-9.67-14.54-18.45-29.68-28.39-44.04-1.82-2.73-.12-6.72-3.75-7.76l.95-1.19c-.04.42-.05.71.37.92,5.81,2.98,18.41,14.4,23.64,19.45,9.63,9.31,9.7,17.53,15.57,28.54,10.95,20.54,29.36,38.73,27.11,64-2.25,25.31-37.92,52.47-53.97,70.73-1.58,1.79-2.43,4.13-4.3,5.77-1.83,1.6-4.24,2.28-6.24,3.83-6.12,4.77-8.25,10.65-16.46,13.28-11.2,3.59-24.17,5.92-35.71,8.91-1.72.44-10.56,3.55-11.41,2.74Z"/>
  <path class="st1" d="M444.17,290.17c-.24.85-3.96,5.22-4.84,6.23-31.95,36.27-87.99,61.56-135.79,66.16-70.63,6.79-147.36-22.68-188.52-81.55-2.65-3.79-3.49-5.36.82-8.21,8.78-5.79,20.21-10.23,29.26-15.84l3.23-.37c.28,2.23-.79,4.36-.96,6.48-1.66,21.61,18.68,30.52,35.95,35.98,4.85,6.67,7.33,11.32,14.89,15.33,20.04,10.62,52.4,8.99,70.7-4.65,2.13-1.58,7.86-7.83,9.75-7.93,1.56-.08,4.04,1.73,5.67,2.28,12.53,4.23,25.97,9.09,38.95,11.42,12.12,2.17,23.97,4.54,36.37,4.88,22.27.63,49.57-1.15,59.17-24.82.6-1.49,3.95-11.54,3.95-12.36v-8.15l1.14-.68c4.91,3.94,10.84,6.81,15.81,10.59,1.39,1.06,4.96,3.41,4.45,5.21Z"/>
  <path class="st1" d="M447.4,280.19l-31.63-12.07c-2.98-1.78-1.96-5.63-2.54-8.49-.56-2.73-2.99-5.06-2.77-8.02l11.67,7.28c7.32,4.91,14.14,10.51,21.29,15.65,1.71,1.23,8.96,4.4,3.98,5.65Z"/>
  <path class="st1" d="M379.67,30.06c4.48-2.09,2.58,2.44,1.68,5.03-3.21,9.22-10.25,21.68-14.7,30.86-6.55,13.52-13.96,26.65-19.6,40.58,1.25.3,2.45.94,3.64.05,20.3-17.1,42.67-31.52,63.97-47.31,1.29-.96,7.92-7.39,9.16-6.2l-58.05,72.41c2.04,2.08,4.35-.62,6.24-1.43,23.53-10.13,47.6-19.45,71.47-28.79,2.98-1.16,5.6-3.45,9.12-3.1.24,1.32-.63,1.85-1.43,2.64-6.83,6.74-18.1,13.18-26.07,19.02-12.25,8.99-24.29,18.3-36.64,27.16-1.62,1.16-11.71,6.6-10.22,8.71,2.4.39,4.89-.95,7.5-1.37,18.36-2.92,37.76-4.07,55.99-7.34,5.33-.95,7.34-1.61,12.95-2.02,6.06-.44,11.78-3.13,18.07-2.21.15,1.3-1.47,1.73-2.4,2.15-27.66,12.41-56.78,21.62-84.41,34.08l-.99,1.41,95.01,10.54c.94.51-.09,1.08-.62,1.31-1.47.66-4.78,1.37-6.48,1.69-23.77,4.48-48.76,5.91-72.74,9.77-1.76.29-4.19.45-4.6,2.59-1.32,6.94,4.15,6.18,8.87,7.9,20.36,7.4,41.68,15.14,61.77,23.14,1.81.72,4.39,1.62,5.98,2.64,1.68,1.09-.35,1.45-1.54,1.56-7.72.7-16.36-1.88-24.06-2.81-14.69-1.78-29.46-3.63-44.14-5.28-5.12-.58-10.82-.15-15.71-1.08-2.57-.5-4.08-.79-5.34-3.3-1.61-3.21-2.69-9.35-4.07-13.2-8.63-24.11-20.29-43.65-39.34-60.89-24.76-22.4-62.52-42.87-75.56-75.05-2.51-6.21-6.23-15.2-.49-20.6,1.05-.22.61.44.84,1.05,3.25,8.86,5.3,20.04,8.9,28.53.36.86.81,1.71,1.53,2.33h1.45c.82-.44,1.16-2.13,1.3-3.03.68-4.21.56-8.76,1.24-13.15,1.73-11.14,5.33-22.08,7.02-33.26.79-2.08,3.56-2.96,5.54-3.58,9.88-3.11,5.99,3.42,6.46,9.85.83,11.35,1.61,22.64,2.9,34.03.64,5.73.28,13.68,5.69,3.29,8.2-15.74,13.41-35.3,23.19-50.18,1.49-2.27,5.82-7.86,8.58-3.97,2.14,3.02-1.62,11.13-2.3,14.55-.72,3.55-.59,7.2-1.24,10.76-2.25,12.51-7.26,27.14-7.89,39.59-.04.66,0,1.41.48,1.91,1.9,2.01,4.78-3.54,5.86-4.7,14.89-15.99,26.94-34.77,41.53-51.03,1.43-1.6,4.94-5.42,6.7-6.25Z"/>
  <path class="st1" d="M330.53,8.55c14.02,1.09,26.31,9.26,39.65,12.9-.18.87-.95.88-1.66.97-4.78.54-9.88-1.56-14.56-2.28-25.81-3.95-51.58,2.35-75.54,11.49-40.61,15.49-27.84,47.53-4.93,72.77,30.01,33.06,74.07,52.69,92.78,95.24,3.3,7.51,5.8,15.6,7.27,23.67-.76.65-16.28-6.22-18.6-7.07-26.84-9.89-65.36-18.95-93.94-16.92-3.07.21-5.84,1.39-8.85,1.45-.88-.86,5.51-13.86,6.24-16.05,6.23-18.73-.95-40.6-9.83-57.32-16.94-31.9-61.25-74.91-12.09-102.69,22.27-12.58,68.7-18.12,94.06-16.16Z"/>
  <path class="st2" d="M491.95,253c1.42,1.66,2.8,3.23,4.16,4.71,1.39,1.45,2.46,2.55,3.21,3.31.66.66,1.31,1.28,1.94,1.86.63.57,1.18,1.06,1.63,1.45l-1.04,1.04c-3.01-2.06-5.64-3.45-7.87-4.17-2.2-.76-4.12-.92-5.75-.5-1.66.39-3.18,1.28-4.57,2.67l-1.04,1.04,25.82,25.86c1.2,1.21,2.23,1.99,3.07,2.36.87.33,1.76.26,2.67-.22.88-.51,1.99-1.42,3.35-2.71l.9.91c-.97.9-2.25,2.12-3.85,3.66-1.57,1.51-3.2,3.1-4.89,4.79-1.66,1.66-3.22,3.24-4.67,4.75-1.45,1.51-2.61,2.73-3.49,3.66l-.9-.91c1.33-1.39,2.25-2.52,2.76-3.39.48-.91.54-1.78.18-2.62-.36-.85-1.14-1.87-2.35-3.08l-25.82-25.86-1,.99c-1.39,1.39-2.28,2.91-2.67,4.57-.42,1.63-.26,3.54.49,5.75.72,2.17,2.09,4.81,4.11,7.92l-1.04,1.04c-.36-.48-.84-1.03-1.45-1.63-.57-.63-1.19-1.28-1.85-1.95-.75-.76-1.87-1.81-3.35-3.17-1.45-1.39-3-2.79-4.66-4.21,1.42-1.36,2.96-2.83,4.62-4.43,1.69-1.63,3.37-3.27,5.03-4.93,1.66-1.66,3.15-3.15,4.48-4.48,1.36-1.36,2.85-2.85,4.48-4.48,1.66-1.66,3.31-3.33,4.94-5.02,1.63-1.69,3.1-3.21,4.39-4.57Z"/>
  <path class="st2" d="M459.68,284.89c1.18,1.47,2.34,2.87,3.49,4.19,1.18,1.29,2.1,2.27,2.75,2.95.59.62,1.17,1.19,1.73,1.71.56.52,1.04.96,1.42,1.3l-1.06,1.02c-2.47-1.95-4.64-3.26-6.53-3.93-1.92-.7-3.65-.81-5.2-.33-1.55.42-3.01,1.3-4.4,2.63l-1.89,1.82c-.89.86-1.49,1.58-1.81,2.18-.31.6-.32,1.2-.03,1.81.29.61.89,1.39,1.81,2.34l23.07,23.98c.92.95,1.67,1.59,2.27,1.9.6.31,1.2.32,1.81.04.61-.29,1.36-.86,2.25-1.72l2.26-2.17c1.38-1.33,2.32-2.79,2.8-4.38.49-1.65.4-3.55-.25-5.71-.62-2.18-1.92-4.7-3.88-7.54l1.06-1.02c.85,1.07,2.05,2.41,3.59,4.01.68.71,1.66,1.69,2.93,2.95s2.65,2.51,4.14,3.75c-1.63,1.45-3.42,3.12-5.39,5.01-2,1.86-3.76,3.53-5.3,5.01-.77.74-1.75,1.69-2.95,2.84-1.2,1.15-2.48,2.41-3.83,3.77-1.38,1.33-2.77,2.69-4.15,4.08-1.41,1.36-2.74,2.66-3.97,3.91l-.89-.92c.92-1.01,1.54-1.84,1.86-2.5.31-.66.28-1.34-.1-2.04-.35-.73-1.05-1.65-2.12-2.76l-22.01-22.88c-1.09-1.14-1.98-1.88-2.67-2.22-.69-.41-1.38-.45-2.08-.13-.7.26-1.54.83-2.52,1.72l-.89-.92c1.29-1.18,2.66-2.44,4.1-3.77,1.41-1.36,2.83-2.69,4.24-3.99,1.38-1.33,2.68-2.57,3.87-3.73,1.2-1.15,2.18-2.1,2.95-2.84,1.42-1.36,3.01-2.9,4.8-4.62,1.79-1.77,3.36-3.38,4.71-4.8ZM467.65,307.58s.15.15.44.46c.3.31.44.46.44.46l-8.07,7.76s-.15-.15-.44-.46c-.3-.31-.44-.46-.44-.46l8.07-7.76ZM463.14,300.21c1.56,1.87,2.79,3.27,3.68,4.19.92.89,1.75,1.72,2.49,2.49.74.77,1.57,1.6,2.49,2.49s2.28,2.16,4.09,3.79l-1.06,1.02c-1.19-.93-2.44-1.65-3.76-2.15-1.29-.54-2.58-.71-3.88-.53-1.33.15-2.61.82-3.84,2.01l-.89-.92c.92-.89,1.53-1.83,1.82-2.82.26-1.02.3-2.03.1-3.03-.19-1.06-.5-2.06-.94-3.01-.43-.94-.88-1.78-1.35-2.51l1.06-1.02Z"/>
  <path class="st2" d="M429.56,313l.79,1.01c-1.05.88-1.77,1.66-2.15,2.34-.38.62-.42,1.3-.11,2.04.28.7.91,1.68,1.88,2.92l19.59,24.98c.95,1.21,1.74,2.05,2.38,2.52.68.45,1.36.56,2.06.34.7-.22,1.61-.72,2.73-1.49l.79,1.01c-.96.64-2.13,1.51-3.5,2.59-1.4,1.05-2.81,2.12-4.22,3.23-1.64,1.29-3.16,2.5-4.54,3.64-1.38,1.08-2.48,2-3.3,2.75l-.79-1.01c1.02-.91,1.72-1.68,2.1-2.3.38-.62.42-1.3.11-2.04-.27-.76-.88-1.75-1.83-2.96l-19.59-24.98c-.97-1.24-1.79-2.07-2.43-2.48-.64-.47-1.33-.59-2.06-.34-.72.19-1.62.67-2.68,1.45l-.79-1.01c.9-.65,2.05-1.5,3.45-2.55,1.44-1.07,2.98-2.25,4.62-3.54,1.41-1.11,2.79-2.21,4.14-3.33,1.35-1.11,2.47-2.04,3.35-2.79Z"/>
  <path class="st2" d="M374,352.61c.93-.52,2.17-1.23,3.73-2.12,1.59-.92,3.15-1.85,4.68-2.78,1.75-1.07,3.43-2.12,5.05-3.16,1.62-1.04,2.77-1.77,3.46-2.19,3.39-2.07,6.42-3.4,9.11-3.99,2.7-.65,5.03-.6,6.99.16,2,.73,3.61,2.1,4.83,4.1.76,1.24,1.27,2.65,1.54,4.24.25,1.55.08,3.25-.49,5.1-.56,1.79-1.69,3.66-3.4,5.6-1.73,1.91-4.2,3.84-7.41,5.8l-5.24,3.2-.67-1.09,4.7-2.87c2.15-1.31,3.52-2.7,4.13-4.17.62-1.53.72-3.09.29-4.68-.41-1.65-1.12-3.31-2.14-4.99-1.76-2.88-3.62-4.79-5.6-5.73-2-.98-4.24-.71-6.71.8-1.42.87-2.16,1.74-2.22,2.63-.02.86.54,2.24,1.7,4.14l16.54,27.1c.8,1.31,1.49,2.24,2.07,2.78.62.52,1.29.71,2,.58s1.68-.52,2.89-1.16l.67,1.09c-1.03.53-2.29,1.25-3.78,2.16-1.51.88-3.04,1.78-4.57,2.71-1.75,1.07-3.39,2.1-4.94,3.09-1.53.93-2.73,1.71-3.59,2.34l-.67-1.09c1.12-.79,1.91-1.46,2.36-2.04.45-.57.56-1.25.35-2.01-.18-.79-.67-1.84-1.47-3.15l-16.54-27.1c-.82-1.35-1.53-2.26-2.13-2.75-.58-.54-1.25-.74-2-.58-.74.1-1.68.48-2.83,1.13l-.67-1.09ZM396.16,365.7c1.59-.92,2.98-1.67,4.18-2.25,1.23-.6,2.32-1.11,3.26-1.54.92-.46,1.73-.88,2.45-1.27,3.49-1.73,6.37-2.51,8.62-2.34,2.29.15,4.36,1.21,6.22,3.18l4.69,4.86c1.22,1.26,2.19,2.07,2.9,2.43.72.36,1.43.33,2.12-.09.45-.33.77-.67.95-1.03.2-.42.35-.94.47-1.56l1.17.19c-.29,1.73-.86,3.17-1.7,4.34-.82,1.2-2.03,2.29-3.63,3.27-1.97,1.2-3.84,1.77-5.63,1.71-1.79-.06-3.57-1.1-5.35-3.11l-4.32-4.86c-1.19-1.37-2.31-2.51-3.36-3.42-1.08-.94-2.14-1.54-3.2-1.8-1.04-.31-2.13-.13-3.26.56l-5.9,3.6-.68-.86Z"/>
  <path class="st2" d="M366.57,356.39c.42,1.84.85,3.6,1.32,5.29.5,1.68.89,2.96,1.18,3.85.26.81.53,1.58.81,2.29.28.72.52,1.31.71,1.79l-1.4.45c-1.37-2.83-2.75-4.96-4.16-6.39-1.42-1.47-2.93-2.32-4.53-2.57-1.58-.3-3.28-.15-5.1.45l-2.5.81c-1.18.38-2.04.77-2.58,1.17-.54.4-.82.94-.82,1.61,0,.67.2,1.64.6,2.9l10.28,31.65c.41,1.26.81,2.16,1.21,2.7s.94.82,1.61.82c.67,0,1.6-.18,2.78-.57l2.98-.97c1.83-.59,3.3-1.5,4.43-2.72,1.16-1.27,1.91-3.02,2.27-5.24.39-2.24.33-5.06-.2-8.48l1.4-.45c.3,1.34.79,3.06,1.48,5.17.3.93.75,2.25,1.35,3.94.59,1.69,1.29,3.42,2.08,5.18-2.1.59-4.44,1.31-7.04,2.15-2.61.8-4.93,1.53-6.96,2.19-1.01.33-2.31.75-3.89,1.27-1.58.51-3.28,1.09-5.09,1.72-1.83.59-3.67,1.21-5.52,1.86-1.87.61-3.62,1.2-5.28,1.78l-.39-1.22c1.27-.5,2.19-.98,2.76-1.44.57-.45.84-1.08.8-1.88,0-.81-.23-1.94-.7-3.4l-9.8-30.19c-.49-1.5-.97-2.56-1.43-3.17-.44-.67-1.04-1.01-1.81-1.03-.74-.07-1.75.07-3.02.44l-.39-1.22c1.68-.5,3.45-1.03,5.33-1.6,1.87-.61,3.72-1.18,5.56-1.74,1.83-.59,3.53-1.15,5.11-1.66,1.58-.51,2.88-.94,3.9-1.27,1.87-.61,3.98-1.29,6.33-2.06,2.38-.82,4.49-1.57,6.33-2.26ZM363.83,380.3s.07.2.2.61c.13.41.2.61.2.61l-10.65,3.46s-.07-.2-.2-.61c-.13-.41-.2-.61-.2-.61l10.65-3.46ZM362.99,371.69c.59,2.36,1.08,4.16,1.48,5.37.44,1.21.82,2.31,1.15,3.33.33,1.01.71,2.12,1.15,3.33.44,1.2,1.11,2.94,2.02,5.2l-1.4.45c-.66-1.35-1.48-2.55-2.44-3.58-.92-1.05-2.01-1.77-3.26-2.17-1.26-.44-2.71-.4-4.33.13l-.4-1.22c1.22-.4,2.17-.98,2.87-1.74.68-.8,1.15-1.7,1.42-2.68.29-1.04.45-2.07.47-3.11.02-1.04-.02-1.99-.12-2.85l1.4-.45Z"/>
  <path class="st2" d="M305,371.36c2.88-.35,5.28-.23,7.2.35,1.92.59,3.67,1.36,5.25,2.33.55.32,1,.46,1.34.42.8-.1,1.18-1.43,1.13-4.01l1.46-.18c.12,1.66.3,3.68.54,6.06.24,2.33.6,5.45,1.07,9.35l-1.46.18c-.6-2.51-1.34-4.65-2.2-6.44-.82-1.83-2.14-3.33-3.96-4.48-1.13-.85-2.5-1.46-4.09-1.83-1.55-.37-3.09-.46-4.61-.28-2.33.28-4.25,1.14-5.75,2.57-1.51,1.39-2.67,3.18-3.47,5.39-.81,2.2-1.31,4.65-1.5,7.34-.2,2.65-.12,5.37.21,8.16.92,7.62,2.63,13.07,5.14,16.33,2.54,3.26,5.79,4.65,9.72,4.17,1.02-.12,1.89-.36,2.62-.7.73-.35,1.31-.72,1.74-1.11.54-.5.89-.99,1.04-1.48.15-.53.18-1.2.08-2.01l-.75-6.23c-.24-1.95-.58-3.37-1.03-4.26-.42-.94-1.11-1.52-2.08-1.75-.97-.23-2.35-.25-4.14-.08l-.15-1.27c.89-.07,1.96-.15,3.19-.26,1.27-.15,2.59-.29,3.95-.41,1.36-.16,2.61-.32,3.75-.45,1.78-.21,3.41-.43,4.89-.66,1.48-.22,2.68-.41,3.61-.56l.15,1.27c-.8.14-1.4.36-1.79.67-.35.3-.56.84-.64,1.62-.04.78.04,1.95.23,3.52l1.52,12.58-1.27.15c-.13-.71-.39-1.48-.79-2.29-.36-.82-.85-1.19-1.49-1.11-.3.04-.69.17-1.18.4-.45.18-1.15.63-2.09,1.35-1.46,1.08-3.02,2.04-4.68,2.89-1.67.8-3.45,1.32-5.36,1.55-4.91.6-9.18.19-12.78-1.22-3.61-1.41-6.49-3.71-8.63-6.88-2.11-3.23-3.45-7.23-4.03-12.02-.58-4.83-.12-9.14,1.4-12.93,1.56-3.8,3.94-6.9,7.13-9.31,3.23-2.41,7.09-3.89,11.58-4.43Z"/>
  <path class="st2" d="M262.02,372.66l9.13,42c.35,1.61.84,2.77,1.46,3.47.67.67,1.3,1.07,1.88,1.2l-.2,1.26c-1.25-.28-2.74-.56-4.47-.83-1.68-.31-3.38-.6-5.11-.87-1.94-.3-3.77-.57-5.51-.8-1.73-.27-3.1-.45-4.13-.52l.2-1.26c2.16.25,3.57.11,4.21-.44.7-.58.79-2.01.29-4.3l-6.11-31.09,1.4-1.46-13.56,23.52c-1.29,2.17-2.16,3.98-2.6,5.42-.4,1.45-.48,2.6-.22,3.46.29.87.86,1.54,1.69,2.02.88.44,1.95.78,3.21,1.02l-.2,1.26c-1.38-.3-2.7-.55-3.96-.75-1.26-.24-2.54-.46-3.85-.67-.93-.15-1.82-.26-2.67-.36-.8-.13-1.52-.2-2.17-.21l.2-1.26c.91-.03,1.91-.46,2.99-1.28,1.08-.82,2.24-2.32,3.49-4.5l20.24-34.71c.67.15,1.38.28,2.14.4.8.13,1.54.22,2.22.29ZM262.24,400.04l-.2,1.26-18.84-2.97.83-1.17,18.21,2.87Z"/>
  <path class="st2" d="M196.87,356c1.02.43,2.37.98,4.03,1.64,1.66.67,3.33,1.32,5.01,1.94,1.92.72,3.78,1.39,5.6,2.02,1.81.63,3.1,1.09,3.86,1.38,4.96,1.85,8.32,4.11,10.1,6.79,1.82,2.68,2.21,5.41,1.18,8.16-.52,1.4-1.47,2.66-2.85,3.79s-3.15,1.92-5.33,2.38c-2.18.46-4.76.43-7.75-.1l-.05.12c3.65,1.68,6.38,3.48,8.17,5.38,1.79,1.9,2.89,3.79,3.28,5.67.39,1.88.28,3.64-.33,5.27-.94,2.52-2.39,4.39-4.36,5.61-1.96,1.23-4.35,1.83-7.17,1.83-2.81-.05-5.93-.71-9.37-2-.96-.36-2.33-.89-4.11-1.61-1.77-.75-3.93-1.61-6.49-2.56-1.76-.66-3.48-1.28-5.18-1.87-1.68-.63-3.05-1.1-4.12-1.4l.45-1.2c1.31.4,2.33.6,3.06.6.73,0,1.33-.32,1.8-.97.51-.63,1.03-1.66,1.57-3.1l11.12-29.73c.55-1.48.84-2.6.85-3.37.07-.79-.19-1.44-.78-1.93-.54-.52-1.41-1.03-2.64-1.53l.45-1.2ZM214.17,363.83c-1.56-.58-2.71-.62-3.44-.12-.69.52-1.43,1.81-2.21,3.89l-11.12,29.73c-.52,1.4-.82,2.49-.89,3.29-.03.81.19,1.44.66,1.89.51.46,1.34.91,2.5,1.35,2.88,1.08,5.31.96,7.3-.34,2.05-1.33,3.7-3.67,4.95-7.03,1.15-3.08,1.26-5.75.33-8.01-.89-2.25-3.12-4.04-6.67-5.36l-5.1-1.9s.06-.16.18-.48c.13-.36.2-.54.2-.54l5.15,1.93c1.88.7,3.48.8,4.81.3,1.34-.55,2.49-1.48,3.44-2.81.97-1.37,1.77-2.91,2.41-4.63,1.11-2.96,1.48-5.35,1.11-7.17-.35-1.86-1.57-3.18-3.64-3.96Z"/>
  <path class="st2" d="M167.85,344.79c7.53,3.73,12.28,8.23,14.24,13.49,1.98,5.22,1.39,11.02-1.78,17.41-2.07,4.17-4.77,7.37-8.12,9.61-3.33,2.21-7.14,3.32-11.44,3.33-4.26.03-8.77-1.14-13.55-3.5-.61-.3-1.4-.72-2.38-1.25-.97-.53-2-1.06-3.07-1.59-1.05-.57-2-1.06-2.84-1.48-1.68-.83-3.35-1.64-5.02-2.42-1.61-.8-2.9-1.39-3.9-1.79l.57-1.15c1.26.53,2.25.83,2.98.91.73.07,1.35-.19,1.89-.78.57-.57,1.2-1.55,1.88-2.93l14.1-28.44c.7-1.41,1.1-2.5,1.19-3.27.15-.78-.04-1.45-.58-2-.48-.57-1.3-1.17-2.47-1.79l.57-1.15c.94.51,2.19,1.2,3.76,2.08,1.62.85,3.25,1.66,4.87,2.42,1.4.64,2.96,1.37,4.7,2.19,1.78.83,3.24,1.54,4.39,2.1ZM167.28,345.79c-1.76-.87-3.07-1.12-3.92-.73-.86.38-1.78,1.57-2.76,3.56l-14.22,28.67c-.99,1.99-1.37,3.44-1.16,4.35.25.93,1.26,1.84,3.01,2.71,3.21,1.59,6.1,2.1,8.68,1.52,2.63-.6,5.07-2.15,7.31-4.66,2.24-2.51,4.4-5.84,6.46-10.01,2.12-4.28,3.44-8.04,3.94-11.26.56-3.25.25-6.02-.94-8.33-1.17-2.34-3.3-4.28-6.4-5.82Z"/>
  <path class="st2" d="M143.82,328.88l-.76,1.03c-1.2-.67-2.24-.98-3.12-.94-.85,0-1.72.4-2.61,1.18-.85.8-1.9,2.05-3.13,3.74l-21.1,28.81c-.39-.34-.81-.67-1.25-1-.41-.3-.87-.61-1.38-.93l-1.61-44.81-14.52,19.83c-1.39,1.89-2.35,3.43-2.9,4.61-.52,1.15-.61,2.2-.25,3.15.42.94,1.32,2.05,2.71,3.34l-.76,1.03c-.6-.55-1.44-1.21-2.51-1.99-1.04-.82-2.03-1.56-2.96-2.24-.79-.58-1.61-1.16-2.46-1.73-.83-.61-1.54-1.08-2.14-1.41l.76-1.03c1.23.63,2.27.95,3.12.94s1.71-.42,2.56-1.22c.91-.81,1.97-2.05,3.18-3.7l17.02-23.24c.93-1.27,1.51-2.28,1.73-3.01.28-.74.21-1.44-.23-2.07-.38-.64-1.08-1.37-2.12-2.19l.76-1.03c.53.44,1.19.98,1.99,1.62.8.64,1.6,1.25,2.39,1.83.83.6,1.63,1.17,2.41,1.69.78.52,1.5.99,2.14,1.41l1.94,39.26,11.84-16.16c1.39-1.89,2.34-3.41,2.87-4.56.55-1.18.63-2.26.23-3.24-.36-.95-1.25-2.05-2.66-3.3l.76-1.03c.63.51,1.46,1.18,2.51,1.99,1.04.82,2.03,1.56,2.96,2.24.83.6,1.65,1.18,2.46,1.73.85.57,1.57,1.04,2.14,1.41Z"/>
  <path class="st2" d="M102.17,289.21l-19.36,38.37c-.74,1.47-1.09,2.68-1.05,3.62.1.94.34,1.65.7,2.12l-.95.86c-.79-1.01-1.78-2.16-2.95-3.46-1.11-1.3-2.25-2.6-3.42-3.89-1.31-1.46-2.57-2.82-3.77-4.1-1.17-1.3-2.13-2.3-2.88-3.01l.95-.86c1.52,1.56,2.7,2.33,3.55,2.32.91-.01,1.88-1.07,2.93-3.15l14.83-28,2.01-.26-25.34,9.73c-2.37.87-4.18,1.73-5.44,2.57-1.22.87-2.01,1.72-2.35,2.55-.32.86-.3,1.74.04,2.63.41.9,1.02,1.84,1.85,2.82l-.95.86c-.88-1.1-1.75-2.13-2.6-3.08-.82-.98-1.68-1.96-2.57-2.94-.63-.7-1.24-1.35-1.85-1.95-.54-.6-1.06-1.11-1.55-1.53l.95-.86c.73.55,1.77.85,3.13.89,1.36.04,3.21-.39,5.55-1.3l37.59-14.21c.43.54.9,1.09,1.41,1.66.54.6,1.06,1.14,1.55,1.62ZM85.1,310.62l-.95.86-12.76-14.17,1.38-.38,12.34,13.7Z"/>
  <path class="st2" d="M73.84,257.6l-.99.81c-.95-1.1-1.79-1.85-2.5-2.25-.66-.4-1.36-.45-2.12-.17-.72.26-1.7.89-2.92,1.89l-25.16,20.59c-1.02.84-1.73,1.52-2.12,2.06-.36.57-.45,1.14-.26,1.7.21.6.68,1.34,1.41,2.23l1.99,2.43c.92,1.12,2.05,1.96,3.39,2.52,1.34.56,2.81.84,4.42.85,1.64-.02,3.35-.32,5.14-.9,1.79-.58,3.61-1.41,5.48-2.5l.93,1.14c-1.2.82-2.7,1.96-4.48,3.42-.76.62-1.85,1.54-3.28,2.77-1.43,1.22-2.85,2.55-4.26,3.98-1.31-1.74-2.83-3.66-4.56-5.78-1.7-2.14-3.22-4.04-4.57-5.69-.68-.83-1.54-1.88-2.59-3.17-1.05-1.29-2.2-2.66-3.45-4.12-1.22-1.49-2.46-2.98-3.74-4.47-1.24-1.52-2.43-2.94-3.58-4.27l.99-.81c.93,1,1.71,1.69,2.34,2.05.63.37,1.31.39,2.04.07.76-.29,1.73-.92,2.92-1.89l24.57-20.1c1.22-1,2.03-1.83,2.43-2.49.46-.65.56-1.34.3-2.06-.2-.72-.7-1.6-1.51-2.65l.99-.81c.64.85,1.51,1.99,2.62,3.4,1.13,1.45,2.34,2.96,3.64,4.55,1.19,1.45,2.37,2.86,3.53,4.22,1.19,1.39,2.19,2.54,2.98,3.44Z"/>
</svg>